<?xml version="1.0" encoding="utf-8"?>
<!-- Generator: Adobe Illustrator 14.0.0, SVG Export Plug-In . SVG Version: 6.00 Build 43363)  -->
<!DOCTYPE svg PUBLIC "-//W3C//DTD SVG 1.1//EN" "http://www.w3.org/Graphics/SVG/1.1/DTD/svg11.dtd">
<svg version="1.1" id="Calque_1" xmlns="http://www.w3.org/2000/svg" xmlns:xlink="http://www.w3.org/1999/xlink" x="0px" y="0px"
	 width="595.275px" height="300px" viewBox="200 310 595 300"
	 xml:space="preserve">
<g>
	
		<radialGradient id="SVGID_1_" cx="-854.853" cy="-464.6641" r="212.8458" gradientTransform="matrix(1.4601 0 0 1.6722 1685.1465 1320.5767)" gradientUnits="userSpaceOnUse">
		<stop  offset="0" style="stop-color:#8B0E13"/>
		<stop  offset="0.1889" style="stop-color:#980D15"/>
		<stop  offset="0.5698" style="stop-color:#B90618"/>
		<stop  offset="1" style="stop-color:#E2001A"/>
	</radialGradient>
	<rect x="155.905" y="305.311" fill="url(#SVGID_1_)" width="283.465" height="231.267"/>
	<g>
		<g>
			<g>
				<path fill="#FFFFFF" d="M216.458,358.625h2.139c1.71,0,2.891,0.948,2.899,3.23c-0.009,2.282-1.189,3.23-2.899,3.23h-2.139
					V358.625z M217.693,364.046h0.823c1.414,0,1.745-1.037,1.745-2.191s-0.331-2.192-1.745-2.192h-0.823V364.046z"/>
				<path fill="#FFFFFF" d="M223.18,365.085v-6.461h4.278v1.038h-3.043v1.538h2.21v1.039h-2.21v1.807h3.141v1.039H223.18z"/>
				<path fill="#FFFFFF" d="M232.722,365.085v-6.461h1.235v5.422h2.81v1.039H232.722z"/>
				<path fill="#FFFFFF" d="M239.676,358.616h1.54l1.834,6.47h-1.226l-0.358-1.396h-2.04l-0.385,1.396h-1.227L239.676,358.616z
					 M239.694,362.669h1.503l-0.725-2.811h-0.019L239.694,362.669z"/>
				<path fill="#FFFFFF" d="M247.991,365.085v-6.461h2.578c1.467,0,2.058,0.85,2.066,1.915c0.009,0.796-0.394,1.44-1.181,1.664
					l1.423,2.882h-1.369l-1.218-2.631h-1.064v2.631H247.991z M249.227,361.452h0.913c0.966,0,1.262-0.304,1.262-0.912
					s-0.367-0.913-1.048-0.913h-1.127V361.452z"/>
				<path fill="#FFFFFF" d="M254.714,365.085v-6.461h4.277v1.038h-3.043v1.538h2.21v1.039h-2.21v1.807h3.141v1.039H254.714z"/>
				<path fill="#FFFFFF" d="M264.129,360.503c-0.179-0.546-0.563-0.931-1.172-0.931c-0.823,0-1.324,0.77-1.324,2.282
					c-0.019,1.512,0.429,2.282,1.359,2.282c0.556,0,0.896-0.197,1.262-0.958l1.146,0.305c-0.385,1.118-1.226,1.69-2.407,1.69
					c-1.646,0-2.595-1.207-2.595-3.319s0.948-3.32,2.595-3.32c1.235,0,1.951,0.555,2.256,1.7L264.129,360.503z"/>
				<path fill="#FFFFFF" d="M267.048,365.085v-6.461h1.234v2.576h2.488v-2.576h1.234v6.461h-1.234v-2.774h-2.488v2.774H267.048z"/>
				<path fill="#FFFFFF" d="M274.208,365.085v-6.461h4.277v1.038h-3.042v1.538h2.21v1.039h-2.21v1.807h3.141v1.039H274.208z"/>
				<path fill="#FFFFFF" d="M280.321,365.085v-6.461h2.577c1.468,0,2.059,0.85,2.067,1.915c0.009,0.796-0.394,1.44-1.182,1.664
					l1.423,2.882h-1.369l-1.217-2.631h-1.064v2.631H280.321z M281.557,361.452h0.912c0.967,0,1.263-0.304,1.263-0.912
					s-0.367-0.913-1.048-0.913h-1.127V361.452z"/>
				<path fill="#FFFFFF" d="M290.292,360.503c-0.18-0.546-0.564-0.931-1.173-0.931c-0.823,0-1.324,0.77-1.324,2.282
					c-0.018,1.512,0.43,2.282,1.36,2.282c0.555,0,0.895-0.197,1.262-0.958l1.146,0.305c-0.385,1.118-1.227,1.69-2.407,1.69
					c-1.646,0-2.595-1.207-2.595-3.319s0.948-3.32,2.595-3.32c1.234,0,1.951,0.555,2.255,1.7L290.292,360.503z"/>
				<path fill="#FFFFFF" d="M293.21,365.085v-6.461h1.235v2.576h2.487v-2.576h1.235v6.461h-1.235v-2.774h-2.487v2.774H293.21z"/>
				<path fill="#FFFFFF" d="M300.37,365.085v-6.461h4.277v1.038h-3.042v1.538h2.21v1.039h-2.21v1.807h3.142v1.039H300.37z"/>
				<path fill="#FFFFFF" d="M311.345,358.616h1.539l1.835,6.47h-1.227l-0.358-1.396h-2.04l-0.384,1.396h-1.227L311.345,358.616z
					 M311.988,356.283l0.842,1.307h-0.913l-1.306-1.307H311.988z M311.363,362.669h1.502l-0.725-2.811h-0.018L311.363,362.669z"/>
				<path fill="#FFFFFF" d="M319.822,365.085v-6.461h1.235v5.422h2.811v1.039H319.822z"/>
				<path fill="#FFFFFF" d="M324.809,359.895h-0.537v-1.271h1.235v1.271l-0.572,1.343h-0.581L324.809,359.895z"/>
				<path fill="#FFFFFF" d="M327.7,365.085v-6.461h1.235v6.461H327.7z"/>
				<path fill="#FFFFFF" d="M331.235,365.085v-6.461h1.288l2.542,4.402h0.018v-4.402h1.164v6.461h-1.19l-2.64-4.6h-0.019v4.6
					H331.235z"/>
				<path fill="#FFFFFF" d="M338.369,358.625h2.139c1.71,0,2.891,0.948,2.899,3.23c-0.009,2.282-1.189,3.23-2.899,3.23h-2.139
					V358.625z M339.604,364.046h0.823c1.414,0,1.746-1.037,1.746-2.191s-0.332-2.192-1.746-2.192h-0.823V364.046z"/>
				<path fill="#FFFFFF" d="M348.814,358.625h1.234v4.045c0,1.888-1.163,2.505-2.479,2.505c-1.316,0-2.479-0.617-2.479-2.505v-4.045
					h1.234v4.099c0,1.047,0.411,1.414,1.244,1.414c0.832,0,1.244-0.367,1.244-1.414V358.625z"/>
				<path fill="#FFFFFF" d="M355.249,360.342c-0.188-0.501-0.572-0.841-1.154-0.841c-0.537,0-0.921,0.215-0.921,0.716
					c0,1.109,3.328,0.877,3.328,2.971c0,1.324-0.832,1.986-2.264,1.986c-1.056,0-2.049-0.591-2.416-1.53l1.021-0.447
					c0.295,0.608,0.68,1.012,1.404,1.012c0.617,0,1.092-0.233,1.092-0.859c0-1.271-3.328-1.021-3.328-3.007
					c0-1.154,0.966-1.808,2.084-1.808c1.038,0,1.897,0.52,2.282,1.459L355.249,360.342z"/>
				<path fill="#FFFFFF" d="M362.463,358.616v1.038h-1.69v5.432h-1.235v-5.432h-1.691v-1.038H362.463z"/>
				<path fill="#FFFFFF" d="M364.04,365.085v-6.461h2.577c1.468,0,2.058,0.85,2.067,1.915c0.009,0.796-0.395,1.44-1.182,1.664
					l1.423,2.882h-1.37l-1.216-2.631h-1.065v2.631H364.04z M365.274,361.452h0.913c0.967,0,1.262-0.304,1.262-0.912
					s-0.367-0.913-1.047-0.913h-1.128V361.452z"/>
				<path fill="#FFFFFF" d="M370.878,365.085v-6.461h1.235v6.461H370.878z"/>
				<path fill="#FFFFFF" d="M374.44,365.085v-6.461h4.277v1.038h-3.043v1.538h2.211v1.039h-2.211v1.807h3.142v1.039H374.44z"/>
			</g>
			<path fill="#FFFFFF" d="M385.697,420.841c0-31.68-24.09-33.923-29.134-33.923c-7.83,0-15.389,1.627-23.345,4.763l-0.559,8.348
				c3.093-1.451,13.009-5.71,22.895-5.71c7.783,0,13.778,2.609,17.834,7.76c-26.778,14.09-42.756,25.416-45.168,34.815
				c-6.854,4.635-18.934,9.982-29.679,9.982c-11.455,0-16.375-4.947-18.523-7.818c29.389-19.769,44.622-31.175,42.757-40.178
				c-1.682-8.124-13.754-11.937-24.567-11.937c-11.066,0-18.668,4.776-22.268,8.486c-5.786,5.968-8.541,14.811-8.188,26.28
				c0.158,5.016,1.144,10.242,2.81,14.826c-4.504,2.933-16.783,10.354-30.881,10.354c-16.746,0-23.635-13.083-23.635-26.289
				c0-12.802,6.438-26.3,23.635-26.3c9.671,0,19.387,4.083,22.695,5.617l-0.56-8.331c-6.24-2.439-14.463-4.646-21.576-4.646
				c-28.475,0-30.824,23.903-30.695,33.645c-0.129,9.76,2.472,33.662,30.434,33.662c16.92,0,31.287-9.289,33.908-10.976
				c1.814,3.168,9.013,10.978,24.576,10.978c12.325,0,26.004-6.13,30.567-9.082c2.797,3.741,8.517,9.102,25.968,9.102
				c11.54,0,18.851-4.002,23.43-9.505c0.089,2.897,0.193,5.721,0.324,7.892l6.983,1.076
				C385.503,446.454,385.697,421.226,385.697,420.841z M274.54,424.858c-0.021-0.146-1.947-14.961,5.946-24.014
				c4.087-4.685,10.121-7.059,17.934-7.059c8.424,0,15.484,2.933,16.213,6.308c0.545,2.523-1.843,5.756-12.725,14.475
				c-0.113,0.097-11.115,9.429-25.313,17.854C275.697,430.151,275.007,427.604,274.54,424.858z M372.956,440.359
				c-4.086,4.686-10.23,6.741-18.043,6.81c-17.807,0.153-19.542-6.6-19.542-6.6c-1.842-4.145,4.165-12.5,41.389-32.225
				c0.908,2.286,1.673,5.232,2.142,8.002C378.922,416.494,380.85,431.309,372.956,440.359z"/>
		</g>
		<defs>
			<filter id="Adobe_OpacityMaskFilter" filterUnits="userSpaceOnUse" x="216.458" y="476.355" width="162.358" height="6.909">
				<feFlood  style="flood-color:white;flood-opacity:1" result="back"/>
				<feBlend  in="SourceGraphic" in2="back" mode="normal"/>
			</filter>
		</defs>
		<mask maskUnits="userSpaceOnUse" x="216.458" y="476.355" width="162.358" height="6.909" id="SVGID_2_">
			<g filter="url(#Adobe_OpacityMaskFilter)">
			</g>
		</mask>
		<linearGradient id="SVGID_3_" gradientUnits="userSpaceOnUse" x1="378.8164" y1="479.8096" x2="216.4585" y2="479.8096">
			<stop  offset="0" style="stop-color:#97BF0D"/>
			<stop  offset="0.3174" style="stop-color:#94BC10"/>
			<stop  offset="0.5083" style="stop-color:#88B317"/>
			<stop  offset="0.6657" style="stop-color:#75A51F"/>
			<stop  offset="0.8049" style="stop-color:#599125"/>
			<stop  offset="0.9308" style="stop-color:#347B28"/>
			<stop  offset="1" style="stop-color:#0B6E29"/>
		</linearGradient>
		<rect x="216.458" y="476.355" mask="url(#SVGID_2_)" fill="url(#SVGID_3_)" width="162.358" height="6.909"/>
	</g>
</g>
</svg>
