<?xml version="1.0" encoding="UTF-8" standalone="no"?>
<!-- Created with Inkscape (http://www.inkscape.org/) -->
<svg
   xmlns:dc="http://purl.org/dc/elements/1.1/"
   xmlns:cc="http://creativecommons.org/ns#"
   xmlns:rdf="http://www.w3.org/1999/02/22-rdf-syntax-ns#"
   xmlns:svg="http://www.w3.org/2000/svg"
   xmlns="http://www.w3.org/2000/svg"
   xmlns:sodipodi="http://sodipodi.sourceforge.net/DTD/sodipodi-0.dtd"
   xmlns:inkscape="http://www.inkscape.org/namespaces/inkscape"
   id="svg1923"
   sodipodi:version="0.32"
   inkscape:version="0.46"
   width="824"
   height="1069"
   viewBox="0 0 824 1069"
   version="1.0"
   sodipodi:docbase="C:\"
   sodipodi:docname="Nouveau_Logo_cea.svg"
   inkscape:output_extension="org.inkscape.output.svg.inkscape"
   inkscape:export-filename="/cea/dsku/trekking/hal1/home/l6/courtaud/Logos/Nouveau_Logo_cea.png"
   inkscape:export-xdpi="90"
   inkscape:export-ydpi="90">
  <metadata
     id="metadata1928">
    <rdf:RDF>
      <cc:Work
         rdf:about="">
        <dc:format>image/svg+xml</dc:format>
        <dc:type
           rdf:resource="http://purl.org/dc/dcmitype/StillImage" />
      </cc:Work>
    </rdf:RDF>
  </metadata>
  <defs
     id="defs1926">
    <inkscape:perspective
       sodipodi:type="inkscape:persp3d"
       inkscape:vp_x="0 : 534.5 : 1"
       inkscape:vp_y="0 : 1000 : 0"
       inkscape:vp_z="824 : 534.5 : 1"
       inkscape:persp3d-origin="412 : 356.33333 : 1"
       id="perspective2535" />
  </defs>
  <sodipodi:namedview
     inkscape:window-height="738"
     inkscape:window-width="1025"
     inkscape:pageshadow="2"
     inkscape:pageopacity="0.0"
     guidetolerance="10.0"
     gridtolerance="10.0"
     objecttolerance="10.0"
     borderopacity="1.0"
     bordercolor="#666666"
     pagecolor="#ffffff"
     id="base"
     inkscape:zoom="1"
     inkscape:cx="413.155"
     inkscape:cy="101.86247"
     inkscape:window-x="77"
     inkscape:window-y="145"
     inkscape:current-layer="svg1923"
     showgrid="false" />
  <g
     id="g1943"
     transform="translate(1.32626e-5,-2.180371)">
    <path
       style="fill:#ffb310"
       d="M 11.630797,822.77577 C 7.7249865,821.07196 3.5414435,816.10081 2.6684645,812.12616 C 1.1789725,805.34455 4.6745684,797.59735 10.463442,794.85034 C 13.73259,793.29903 42.428892,793.18038 414.3471,793.18038 C 799.8935,793.18038 814.84054,793.24789 818.19597,795.00437 C 823.03395,797.53693 826.45747,804.25988 825.8549,810.04462 C 825.36451,814.75237 823.16756,818.35418 818.79527,821.61859 L 816.03375,823.68038 L 415.35706,823.89323 C 83.757581,824.06938 14.154622,823.87673 11.630797,822.77577 z M 160.18037,572.51485 C 134.45548,569.9758 106.89972,559.90337 84.87821,544.98974 C 71.902654,536.20231 51.436434,515.56059 42.900749,502.65233 C 24.415731,474.69798 15.949371,446.59175 15.949371,413.18038 C 15.949371,370.74428 30.848868,333.25423 59.575565,303.40834 C 84.549973,277.46094 112.31317,262.36999 147.68037,255.51816 C 160.07668,253.11657 190.07711,253.08449 202.68037,255.45934 C 221.87615,259.07644 239.17768,265.39187 255.71988,274.81989 C 276.52123,286.67536 281.69706,294.36678 276.16751,305.20559 C 273.90952,309.6316 270.79315,312.03864 265.95294,313.09515 C 260.78846,314.22244 256.69279,312.8216 247.74671,306.86811 C 224.7655,291.57442 203.44658,284.95924 176.68037,284.81651 C 159.53734,284.7251 151.12984,285.95982 136.18037,290.76431 C 97.656212,303.1453 66.327864,333.90942 53.583806,371.87331 C 47.273161,390.6724 45.331169,416.07226 48.722275,435.45865 C 56.799303,481.6337 90.571679,520.5962 135.47056,535.53841 C 161.22536,544.10952 192.70658,543.73582 218.41404,534.55383 C 237.7017,527.66482 260.98754,512.04988 271.19797,499.15816 L 274.32754,495.20676 L 268.8469,483.94357 C 262.81806,471.55376 257.19385,454.58045 254.51138,440.68038 C 251.7931,426.59472 252.03266,398.07646 254.99295,383.35288 C 258.09591,367.91967 262.20656,355.92043 269.26894,341.68038 C 277.12647,325.83704 286.35011,313.05691 299.2035,300.20351 C 331.09301,268.31401 373.48831,251.66743 418.18037,253.48706 C 498.54013,256.7589 562.97667,317.43175 571.21646,397.58443 C 572.40552,409.15094 572.15273,425.79805 570.75366,428.06179 C 570.24915,428.87811 531.57091,429.18038 427.62135,429.18038 L 285.18037,429.18038 L 285.18037,432.55216 C 285.18037,434.40663 286.26336,440.14413 287.58702,445.30216 C 299.68366,492.44039 338.1603,529.10888 386.18037,539.26226 C 399.76548,542.1347 422.39446,542.40579 435.36259,539.85144 C 467.29435,533.56181 495.05625,516.3441 514.77358,490.60138 C 520.7374,482.81509 524.74662,480.18038 530.63116,480.18038 C 536.13686,480.18038 539.53284,482.47021 545.84182,490.4366 C 563.25695,512.42679 585.52188,528.18199 610.18037,535.9641 C 623.87336,540.28555 632.83294,541.59624 648.68037,541.59624 C 670.94746,541.59624 687.58311,537.61489 707.18037,527.59565 C 737.60866,512.03898 759.88343,486.17426 770.68873,453.85187 C 775.31269,440.02 777.18037,428.3186 777.18037,413.18038 C 777.18037,379.83822 765.11824,349.22539 742.51222,325.19504 C 723.87748,305.3862 696.94525,290.81735 670.18037,286.06751 C 659.49648,284.1715 634.68452,284.46726 624.68037,286.60989 C 606.30357,290.54571 591.52651,296.85256 575.7031,307.51337 C 567.58927,312.97996 566.16414,313.59316 561.5557,313.60064 C 552.29103,313.61567 545.39933,305.80208 546.45063,296.47497 C 547.10295,290.68763 549.11192,287.95716 556.98125,282.16236 C 572.232,270.93205 596.06799,260.76513 618.18037,256.05871 C 632.36445,253.03975 662.7095,252.79927 677.18037,255.59113 C 698.59556,259.72276 719.75583,268.43065 738.33879,280.75907 C 749.45051,288.13088 766.62542,304.08905 774.35314,314.22202 C 777.2718,318.04912 779.97341,321.18038 780.35671,321.18038 C 780.74,321.18038 781.19463,310.04288 781.36699,296.43038 C 781.66536,272.86608 781.78703,271.50888 783.90674,268.10057 C 787.18368,262.83157 791.60319,260.80193 798.5458,261.37766 C 803.33177,261.77455 804.8031,262.39162 807.73178,265.23021 C 809.64976,267.08918 811.6665,270.27202 812.21344,272.30318 C 812.85632,274.69068 813.11462,325.31695 812.94411,415.51514 L 812.68037,555.03409 L 810.58842,557.85723 C 806.96611,562.74565 802.41529,565.18038 796.90052,565.18038 C 790.46971,565.18038 785.95867,562.41958 783.25132,556.82695 C 781.33543,552.86924 781.18037,550.77559 781.18037,528.86466 C 781.18037,515.8383 780.83824,505.18038 780.42008,505.18038 C 780.00193,505.18038 777.2718,508.31164 774.35314,512.13874 C 771.43447,515.96584 764.31039,523.61891 758.52184,529.14557 C 715.16788,570.53807 652.40339,583.91434 595.18037,563.95664 C 575.62964,557.13793 552.7139,542.93065 538.15527,528.60228 C 534.56647,525.07023 531.28688,522.18038 530.8673,522.18038 C 530.44772,522.18038 525.54138,526.22954 519.96432,531.17852 C 490.30428,557.4983 457.1423,571.13062 418.68037,572.81462 C 375.61917,574.69999 335.45106,559.81756 302.70007,529.8435 C 298.09488,525.62878 293.93229,522.18038 293.44985,522.18038 C 292.96742,522.18038 291.02193,523.79685 289.12654,525.77254 C 273.68032,541.8731 248.46358,557.48355 225.68037,565.04894 C 205.70389,571.68234 180.66339,574.53654 160.18037,572.51485 z M 539.18037,394.3086 C 539.18037,392.72913 538.10011,387.17834 536.7798,381.97351 C 530.55762,357.44494 519.48244,338.45541 500.98091,320.59266 C 482.34231,302.59758 461.14622,291.58795 435.36259,286.50932 C 422.39446,283.95497 399.76548,284.22606 386.18037,287.0985 C 338.1603,297.25188 299.68366,333.92037 287.58702,381.0586 C 286.26336,386.21663 285.18037,391.95413 285.18037,393.8086 L 285.18037,397.18038 L 412.18037,397.18038 L 539.18037,397.18038 L 539.18037,394.3086 z M 11.680373,32.239639 C 5.6903081,29.790078 1.3482935,21.42928 2.6003102,14.755457 C 3.49396,9.9918943 8.455878,4.4673858 13.023118,3.1508943 C 15.566957,2.4176411 138.35804,2.1855497 416.35706,2.3885398 L 816.03375,2.6803768 L 818.79527,4.7421654 C 825.8357,9.9986435 827.84475,17.174382 824.28829,24.361691 C 823.11295,26.736968 820.92034,29.580377 819.41584,30.680377 C 816.69215,32.671767 814.95194,32.681189 415.18037,32.868945 C 194.35537,32.972658 12.780373,32.68947 11.680373,32.239639 z "
       id="path1949" />
    <path
       style="fill:#99CC00"
       d="M 11.36,822.49862 C -0.3411789,816.73251 -0.2438141,800.4058 11.525056,794.82111 C 14.712318,793.30865 46.191876,793.18038 414.18037,793.18038 C 782.16887,793.18038 813.64842,793.30865 816.83569,794.82111 C 828.68312,800.44308 828.68312,816.91768 816.83569,822.53965 C 813.64817,824.05223 782.18683,824.1786 414.02924,824.15761 C 46.32435,824.13664 14.41727,824.00519 11.36,822.49862 z M 160.18037,572.51485 C 134.45548,569.9758 106.89972,559.90337 84.87821,544.98974 C 71.902654,536.20231 51.436434,515.56059 42.900749,502.65233 C 24.415731,474.69798 15.949371,446.59175 15.949371,413.18038 C 15.949371,370.74428 30.848868,333.25423 59.575565,303.40834 C 84.549973,277.46094 112.31317,262.36999 147.68037,255.51816 C 160.07668,253.11657 190.07711,253.08449 202.68037,255.45934 C 221.87615,259.07644 239.17768,265.39187 255.71988,274.81989 C 276.52123,286.67536 281.69706,294.36678 276.16751,305.20559 C 273.90952,309.6316 270.79315,312.03864 265.95294,313.09515 C 260.78846,314.22244 256.69279,312.8216 247.74671,306.86811 C 224.7655,291.57442 203.44658,284.95924 176.68037,284.81651 C 159.53734,284.7251 151.12984,285.95982 136.18037,290.76431 C 97.656212,303.1453 66.327864,333.90942 53.583806,371.87331 C 47.273161,390.6724 45.331169,416.07226 48.722275,435.45865 C 56.799303,481.6337 90.571679,520.5962 135.47056,535.53841 C 161.22536,544.10952 192.70658,543.73582 218.41404,534.55383 C 237.7017,527.66482 260.98754,512.04988 271.19797,499.15816 L 274.32754,495.20676 L 268.8469,483.94357 C 262.81806,471.55376 257.19385,454.58045 254.51138,440.68038 C 251.7931,426.59472 252.03266,398.07646 254.99295,383.35288 C 258.09591,367.91967 262.20656,355.92043 269.26894,341.68038 C 277.12647,325.83704 286.35011,313.05691 299.2035,300.20351 C 331.09301,268.31401 373.48831,251.66743 418.18037,253.48706 C 498.54013,256.7589 562.97667,317.43175 571.21646,397.58443 C 572.40552,409.15094 572.15273,425.79805 570.75366,428.06179 C 570.24915,428.87811 531.57091,429.18038 427.62135,429.18038 L 285.18037,429.18038 L 285.18037,432.55216 C 285.18037,434.40663 286.26336,440.14413 287.58702,445.30216 C 299.68366,492.44039 338.1603,529.10888 386.18037,539.26226 C 399.76548,542.1347 422.39446,542.40579 435.36259,539.85144 C 467.29435,533.56181 495.05625,516.3441 514.77358,490.60138 C 520.7374,482.81509 524.74662,480.18038 530.63116,480.18038 C 536.13686,480.18038 539.53284,482.47021 545.84182,490.4366 C 563.25695,512.42679 585.52188,528.18199 610.18037,535.9641 C 623.87336,540.28555 632.83294,541.59624 648.68037,541.59624 C 670.94746,541.59624 687.58311,537.61489 707.18037,527.59565 C 737.60866,512.03898 759.88343,486.17426 770.68873,453.85187 C 775.31269,440.02 777.18037,428.3186 777.18037,413.18038 C 777.18037,379.83822 765.11824,349.22539 742.51222,325.19504 C 723.87748,305.3862 696.94525,290.81735 670.18037,286.06751 C 659.49648,284.1715 634.68452,284.46726 624.68037,286.60989 C 606.30357,290.54571 591.52651,296.85256 575.7031,307.51337 C 567.58927,312.97996 566.16414,313.59316 561.5557,313.60064 C 552.29103,313.61567 545.39933,305.80208 546.45063,296.47497 C 547.10295,290.68763 549.11192,287.95716 556.98125,282.16236 C 572.232,270.93205 596.06799,260.76513 618.18037,256.05871 C 632.36445,253.03975 662.7095,252.79927 677.18037,255.59113 C 698.59556,259.72276 719.75583,268.43065 738.33879,280.75907 C 749.45051,288.13088 766.62542,304.08905 774.35314,314.22202 C 777.2718,318.04912 779.97341,321.18038 780.35671,321.18038 C 780.74,321.18038 781.19463,310.04288 781.36699,296.43038 C 781.66536,272.86608 781.78703,271.50888 783.90674,268.10057 C 787.18368,262.83157 791.60319,260.80193 798.5458,261.37766 C 803.33177,261.77455 804.8031,262.39162 807.73178,265.23021 C 809.64976,267.08918 811.6665,270.27202 812.21344,272.30318 C 812.85632,274.69068 813.11462,325.31695 812.94411,415.51514 L 812.68037,555.03409 L 810.58842,557.85723 C 806.96611,562.74565 802.41529,565.18038 796.90052,565.18038 C 790.46971,565.18038 785.95867,562.41958 783.25132,556.82695 C 781.33543,552.86924 781.18037,550.77559 781.18037,528.86466 C 781.18037,515.8383 780.83824,505.18038 780.42008,505.18038 C 780.00193,505.18038 777.2718,508.31164 774.35314,512.13874 C 771.43447,515.96584 764.31039,523.61891 758.52184,529.14557 C 715.16788,570.53807 652.40339,583.91434 595.18037,563.95664 C 575.62964,557.13793 552.7139,542.93065 538.15527,528.60228 C 534.56647,525.07023 531.28688,522.18038 530.8673,522.18038 C 530.44772,522.18038 525.54138,526.22954 519.96432,531.17852 C 490.30428,557.4983 457.1423,571.13062 418.68037,572.81462 C 375.61917,574.69999 335.45106,559.81756 302.70007,529.8435 C 298.09488,525.62878 293.93229,522.18038 293.44985,522.18038 C 292.96742,522.18038 291.02193,523.79685 289.12654,525.77254 C 273.68032,541.8731 248.46358,557.48355 225.68037,565.04894 C 205.70389,571.68234 180.66339,574.53654 160.18037,572.51485 z M 539.18037,394.3086 C 539.18037,392.72913 538.10011,387.17834 536.7798,381.97351 C 530.55762,357.44494 519.48244,338.45541 500.98091,320.59266 C 482.34231,302.59758 461.14622,291.58795 435.36259,286.50932 C 422.39446,283.95497 399.76548,284.22606 386.18037,287.0985 C 338.1603,297.25188 299.68366,333.92037 287.58702,381.0586 C 286.26336,386.21663 285.18037,391.95413 285.18037,393.8086 L 285.18037,397.18038 L 412.18037,397.18038 L 539.18037,397.18038 L 539.18037,394.3086 z "
       id="path1947" />
    <path
       style="fill:#5f5f5f"
       d="M 160.18037,572.51485 C 134.45548,569.9758 106.89972,559.90337 84.87821,544.98974 C 71.902654,536.20231 51.436434,515.56059 42.900749,502.65233 C 24.415731,474.69798 15.949371,446.59175 15.949371,413.18038 C 15.949371,370.74428 30.848868,333.25423 59.575565,303.40834 C 84.549973,277.46094 112.31317,262.36999 147.68037,255.51816 C 160.07668,253.11657 190.07711,253.08449 202.68037,255.45934 C 221.87615,259.07644 239.17768,265.39187 255.71988,274.81989 C 276.52123,286.67536 281.69706,294.36678 276.16751,305.20559 C 273.90952,309.6316 270.79315,312.03864 265.95294,313.09515 C 260.78846,314.22244 256.69279,312.8216 247.74671,306.86811 C 224.7655,291.57442 203.44658,284.95924 176.68037,284.81651 C 159.53734,284.7251 151.12984,285.95982 136.18037,290.76431 C 97.656212,303.1453 66.327864,333.90942 53.583806,371.87331 C 47.273161,390.6724 45.331169,416.07226 48.722275,435.45865 C 56.799303,481.6337 90.571679,520.5962 135.47056,535.53841 C 161.22536,544.10952 192.70658,543.73582 218.41404,534.55383 C 237.7017,527.66482 260.98754,512.04988 271.19797,499.15816 L 274.32754,495.20676 L 268.8469,483.94357 C 262.81806,471.55376 257.19385,454.58045 254.51138,440.68038 C 251.7931,426.59472 252.03266,398.07646 254.99295,383.35288 C 258.09591,367.91967 262.20656,355.92043 269.26894,341.68038 C 277.12647,325.83704 286.35011,313.05691 299.2035,300.20351 C 331.09301,268.31401 373.48831,251.66743 418.18037,253.48706 C 498.54013,256.7589 562.97667,317.43175 571.21646,397.58443 C 572.40552,409.15094 572.15273,425.79805 570.75366,428.06179 C 570.24915,428.87811 531.57091,429.18038 427.62135,429.18038 L 285.18037,429.18038 L 285.18037,432.55216 C 285.18037,434.40663 286.26336,440.14413 287.58702,445.30216 C 299.68366,492.44039 338.1603,529.10888 386.18037,539.26226 C 399.76548,542.1347 422.39446,542.40579 435.36259,539.85144 C 467.29435,533.56181 495.05625,516.3441 514.77358,490.60138 C 520.7374,482.81509 524.74662,480.18038 530.63116,480.18038 C 536.13686,480.18038 539.53284,482.47021 545.84182,490.4366 C 563.25695,512.42679 585.52188,528.18199 610.18037,535.9641 C 623.87336,540.28555 632.83294,541.59624 648.68037,541.59624 C 670.94746,541.59624 687.58311,537.61489 707.18037,527.59565 C 737.60866,512.03898 759.88343,486.17426 770.68873,453.85187 C 775.31269,440.02 777.18037,428.3186 777.18037,413.18038 C 777.18037,379.83822 765.11824,349.22539 742.51222,325.19504 C 723.87748,305.3862 696.94525,290.81735 670.18037,286.06751 C 659.49648,284.1715 634.68452,284.46726 624.68037,286.60989 C 606.30357,290.54571 591.52651,296.85256 575.7031,307.51337 C 567.58927,312.97996 566.16414,313.59316 561.5557,313.60064 C 552.29103,313.61567 545.39933,305.80208 546.45063,296.47497 C 547.10295,290.68763 549.11192,287.95716 556.98125,282.16236 C 572.232,270.93205 596.06799,260.76513 618.18037,256.05871 C 632.36445,253.03975 662.7095,252.79927 677.18037,255.59113 C 698.59556,259.72276 719.75583,268.43065 738.33879,280.75907 C 749.45051,288.13088 766.62542,304.08905 774.35314,314.22202 C 777.2718,318.04912 779.97341,321.18038 780.35671,321.18038 C 780.74,321.18038 781.19463,310.04288 781.36699,296.43038 C 781.66536,272.86608 781.78703,271.50888 783.90674,268.10057 C 787.18368,262.83157 791.60319,260.80193 798.5458,261.37766 C 803.33177,261.77455 804.8031,262.39162 807.73178,265.23021 C 809.64976,267.08918 811.6665,270.27202 812.21344,272.30318 C 812.85632,274.69068 813.11462,325.31695 812.94411,415.51514 L 812.68037,555.03409 L 810.58842,557.85723 C 806.96611,562.74565 802.41529,565.18038 796.90052,565.18038 C 790.46971,565.18038 785.95867,562.41958 783.25132,556.82695 C 781.33543,552.86924 781.18037,550.77559 781.18037,528.86466 C 781.18037,515.8383 780.83824,505.18038 780.42008,505.18038 C 780.00193,505.18038 777.2718,508.31164 774.35314,512.13874 C 771.43447,515.96584 764.31039,523.61891 758.52184,529.14557 C 715.16788,570.53807 652.40339,583.91434 595.18037,563.95664 C 575.62964,557.13793 552.7139,542.93065 538.15527,528.60228 C 534.56647,525.07023 531.28688,522.18038 530.8673,522.18038 C 530.44772,522.18038 525.54138,526.22954 519.96432,531.17852 C 490.30428,557.4983 457.1423,571.13062 418.68037,572.81462 C 375.61917,574.69999 335.45106,559.81756 302.70007,529.8435 C 298.09488,525.62878 293.93229,522.18038 293.44985,522.18038 C 292.96742,522.18038 291.02193,523.79685 289.12654,525.77254 C 273.68032,541.8731 248.46358,557.48355 225.68037,565.04894 C 205.70389,571.68234 180.66339,574.53654 160.18037,572.51485 z M 539.18037,394.3086 C 539.18037,392.72913 538.10011,387.17834 536.7798,381.97351 C 530.55762,357.44494 519.48244,338.45541 500.98091,320.59266 C 482.34231,302.59758 461.14622,291.58795 435.36259,286.50932 C 422.39446,283.95497 399.76548,284.22606 386.18037,287.0985 C 338.1603,297.25188 299.68366,333.92037 287.58702,381.0586 C 286.26336,386.21663 285.18037,391.95413 285.18037,393.8086 L 285.18037,397.18038 L 412.18037,397.18038 L 539.18037,397.18038 L 539.18037,394.3086 z "
       id="path1945" />
  </g>
  <g
     id="g2531"
     transform="matrix(3.7803337,-3.677128e-2,0.2100748,4.2700723,-213.72186,-3514.9796)"
     inkscape:export-xdpi="1488.6366"
     inkscape:export-ydpi="1488.6366"
     inkscape:export-filename="/cea/dsku/trekking/hal1/home/l6/courtaud/Logos/Nouveau_Logo_cea.png">
    <text
       x="0"
       y="1069"
       style="fill:#5f5f5f;font-family:Helvetica"
       id="text2533"><tspan
   style="font-weight:bold"
   id="tspan13">e</tspan>
nergie <tspan
   style="font-weight:bold"
   id="tspan15">a</tspan>
tomique <tspan
   style="font-weight:bold"
   id="tspan17">. e</tspan>
nergies <tspan
   style="font-weight:bold"
   id="tspan19">a</tspan>
lternatives</text>
  </g>
</svg>
